# xmcd
#
# Track frame offsets:
#	183
#	18080
#	55065
#
# Disc length: 902 seconds
#
# Revision: 1
# Processed by: cddbd v1.5.2PL0 Copyright (c) Steve Scherf et al.
# Submitted via: EZCDAudioConverter 7.1.1.1
#
DISCID=17038403
DTITLE=UB40 and Afrika Bambaataa - Reckless
DYEAR=1998
DGENRE=Pop
TTITLE0=UB40 and Afrika Bambaataa - Reckless
TTITLE1=UB40 and Afrika Bambaataa - Reckless (The Soca Chant Zouk Mix)
TTITLE2=Afrika Bambaataa and Family - Mind Body and Soul
EXTD=
EXTT0=
EXTT1=
EXTT2=
PLAYORDER=
